Coordinates
version=1
nRows=10
nColumns=22
inDegrees=yes

Units are S.I. units (second, meters, Newtons, ...)
If the header above contains a line with 'inDegrees', this indicates whether rotational values are in degrees (yes) or radians (no).

endheader
time	pelvis_tilt	pelvis_list	pelvis_rotation	pelvis_tx	pelvis_ty	pelvis_tz	hip_flexion_r	hip_adduction_r	hip_rotation_r	knee_angle_r	ankle_angle_r	subtalar_angle_r	hip_flexion_l	hip_adduction_l	hip_rotation_l	knee_angle_l	ankle_angle_l	subtalar_angle_l	lumbar_extension	lumbar_bending	lumbar_rotation
      3.04000000	      1.14333735	      5.73537383	    -35.06291632	      0.43466789	      0.88551705	     -0.46025768	     17.45849463	      7.27410018	     26.58526168	    -19.40010841	      1.50412897	    -10.32163161	     21.44266510	    -18.53331143	      3.71656711	    -58.45218205	      6.90980355	      5.20558261	     -3.49686865	      7.27927327	    -10.44444803
      3.05000000	      1.12921143	      5.80074631	    -37.49507317	      0.43817590	      0.88611577	     -0.45558367	     16.89277445	      7.68537965	     28.24067710	    -18.95065976	      1.40424142	    -10.22231896	     22.38984665	    -18.89916093	      5.07557444	    -58.44857682	      7.39865285	      4.60905194	     -3.49586632	      7.25965529	    -10.56827355
      3.06000000	      1.09672154	      5.88228416	    -40.02051216	      0.44119204	      0.88664732	     -0.45094463	     16.37716468	      8.10655733	     29.91945945	    -18.52630024	      1.23867573	    -10.16259876	     23.32113013	    -19.25913570	      6.37567690	    -58.59621420	      7.90531945	      4.24399393	     -3.47664522	      7.23296806	    -10.68272238
      3.07000000	      1.12111933	      5.95088392	    -42.66302236	      0.44372093	      0.88725271	     -0.44636349	     15.81461873	      8.50033077	     31.62020805	    -18.10225944	      1.10411448	     -9.99023494	     24.14544091	    -19.59740717	      7.53041375	    -58.89982690	      8.43772195	      3.54325796	     -3.53550978	      7.17375575	    -10.75075788
      3.08000000	      1.13397817	      6.05045154	    -45.42962976	      0.44568700	      0.88781806	     -0.44182955	     15.30597666	      8.89451697	     33.35148093	    -17.69713330	      0.88069927	     -9.82283128	     24.93941146	    -19.93766542	      8.53114855	    -59.33579725	      8.96771408	      3.07391728	     -3.57204307	      7.08448778	    -10.75727242
      3.09000000	      1.16775869	      6.16488009	    -48.33436421	      0.44707180	      0.88841116	     -0.43735206	     14.80901065	      9.27889555	     35.11712961	    -17.30358676	      0.62200006	     -9.60261145	     25.65257929	    -20.27864908	      9.33909060	    -59.88457627	      9.48891743	      2.67064334	     -3.62396457	      6.95529365	    -10.67927048
      3.10000000	      1.23209374	      6.30465857	    -51.37360678	      0.44786533	      0.88905216	     -0.43301537	     14.33163340	      9.63211284	     36.89913249	    -16.91669095	      0.31684974	     -9.29493317	     26.28444823	    -20.59867236	      9.94781491	    -60.52459775	      9.99438067	      2.31179121	     -3.68950184	      6.77328107	    -10.51297479
      3.11000000	      1.33248601	      6.47192858	    -54.53912826	      0.44808292	      0.88975410	     -0.42886466	     13.88070121	      9.94787819	     38.67262904	    -16.54011391	     -0.03278359	     -8.87865686	     26.83126717	    -20.88367221	     10.36595727	    -61.23081467	     10.47408813	      2.00445454	     -3.75728965	      6.53376393	    -10.25942173
      3.12000000	      1.47066523	      6.66912028	    -57.81872166	      0.44774690	      0.89051312	     -0.42497387	     13.46985105	     10.22439018	     40.40393873	    -16.17919010	     -0.42089878	     -8.37139871	     27.30439975	    -21.12168082	     10.60809646	    -61.98759243	     10.92483122	      1.76364679	     -3.81827050	      6.23844478	     -9.92360770
      3.13000000	      1.65526743	      6.89068360	    -61.19451990	      0.44690762	      0.89133387	     -0.42138514	     13.10249240	     10.46321073	     42.04203196	    -15.84847980	     -0.84621235	     -7.78571002	     27.70558640	    -21.29458165	     10.70125653	    -62.77843153	     11.34806882	      1.56982568	     -3.86498176	      5.88450510	     -9.51442544
